<mxfile host="app.diagrams.net" modified="2020-11-18T15:10:37.065Z" agent="5.0 (Macintosh; Intel Mac OS X 10_15_7) AppleWebKit/605.1.15 (KHTML, like Gecko) Version/14.0.1 Safari/605.1.15" etag="rdMy49Aifr-TkUugEnRf" version="13.9.9" type="github">
  <diagram id="fOSjqjCtNiQivL8aY4lY" name="第 1 页">
    <mxGraphModel dx="1426" dy="842" grid="1" gridSize="10" guides="1" tooltips="1" connect="1" arrows="1" fold="1" page="1" pageScale="1" pageWidth="827" pageHeight="1169" math="0" shadow="0">
      <root>
        <mxCell id="0" />
        <mxCell id="1" parent="0" />
        <mxCell id="1fWZCzGGbwZV19nNFNsJ-6" style="rounded=0;orthogonalLoop=1;jettySize=auto;html=1;fontSize=16;" edge="1" parent="1" source="1fWZCzGGbwZV19nNFNsJ-1" target="1fWZCzGGbwZV19nNFNsJ-2">
          <mxGeometry relative="1" as="geometry" />
        </mxCell>
        <mxCell id="1fWZCzGGbwZV19nNFNsJ-8" style="edgeStyle=none;rounded=0;orthogonalLoop=1;jettySize=auto;html=1;fontSize=16;" edge="1" parent="1" source="1fWZCzGGbwZV19nNFNsJ-1" target="1fWZCzGGbwZV19nNFNsJ-4">
          <mxGeometry relative="1" as="geometry" />
        </mxCell>
        <mxCell id="1fWZCzGGbwZV19nNFNsJ-1" value="init" style="ellipse;whiteSpace=wrap;html=1;aspect=fixed;fontSize=16;fillColor=#ffe6cc;strokeColor=none;shadow=1;" vertex="1" parent="1">
          <mxGeometry x="340" y="270" width="80" height="80" as="geometry" />
        </mxCell>
        <mxCell id="1fWZCzGGbwZV19nNFNsJ-7" style="edgeStyle=none;rounded=0;orthogonalLoop=1;jettySize=auto;html=1;entryX=1;entryY=0;entryDx=0;entryDy=0;fontSize=16;" edge="1" parent="1" source="1fWZCzGGbwZV19nNFNsJ-2" target="1fWZCzGGbwZV19nNFNsJ-3">
          <mxGeometry relative="1" as="geometry" />
        </mxCell>
        <mxCell id="1fWZCzGGbwZV19nNFNsJ-2" value="kthreadd" style="ellipse;whiteSpace=wrap;html=1;aspect=fixed;fontSize=16;" vertex="1" parent="1">
          <mxGeometry x="260" y="370" width="80" height="80" as="geometry" />
        </mxCell>
        <mxCell id="1fWZCzGGbwZV19nNFNsJ-3" value="kworker" style="ellipse;whiteSpace=wrap;html=1;aspect=fixed;fontSize=16;" vertex="1" parent="1">
          <mxGeometry x="180" y="470" width="80" height="80" as="geometry" />
        </mxCell>
        <mxCell id="1fWZCzGGbwZV19nNFNsJ-9" style="edgeStyle=none;rounded=0;orthogonalLoop=1;jettySize=auto;html=1;fontSize=16;" edge="1" parent="1" source="1fWZCzGGbwZV19nNFNsJ-4" target="1fWZCzGGbwZV19nNFNsJ-5">
          <mxGeometry relative="1" as="geometry" />
        </mxCell>
        <mxCell id="1fWZCzGGbwZV19nNFNsJ-4" value="login" style="ellipse;whiteSpace=wrap;html=1;aspect=fixed;fontSize=16;" vertex="1" parent="1">
          <mxGeometry x="420" y="370" width="80" height="80" as="geometry" />
        </mxCell>
        <mxCell id="1fWZCzGGbwZV19nNFNsJ-5" value="bash" style="ellipse;whiteSpace=wrap;html=1;aspect=fixed;fontSize=16;" vertex="1" parent="1">
          <mxGeometry x="500" y="470" width="80" height="80" as="geometry" />
        </mxCell>
        <mxCell id="1fWZCzGGbwZV19nNFNsJ-10" value="...." style="text;html=1;align=center;verticalAlign=middle;resizable=0;points=[];autosize=1;fontSize=16;fontStyle=1" vertex="1" parent="1">
          <mxGeometry x="365" y="420" width="30" height="20" as="geometry" />
        </mxCell>
      </root>
    </mxGraphModel>
  </diagram>
</mxfile>
